<!--?xml version="1.0" standalone="no"?-->
              <svg id="sw-js-blob-svg" viewBox="0 0 100 100" xmlns="http://www.w3.org/2000/svg" version="1.1">
                    <defs> 
                        <linearGradient id="sw-gradient" x1="0" x2="1" y1="1" y2="0">
                            <stop id="stop1" stop-color="rgba(171.968, 139.809, 25.789, 1)" offset="0%"></stop>
                            <stop id="stop2" stop-color="rgba(244, 211, 94, 1)" offset="100%"></stop>
                        </linearGradient>
                    </defs>
                <path fill="url(#sw-gradient)" d="M21.1,-36.2C28.2,-32.4,35.3,-28.5,38.1,-22.4C41,-16.3,39.5,-8.2,39.4,-0.1C39.3,8,40.5,16,38.1,22.9C35.7,29.8,29.7,35.4,22.8,38.4C15.8,41.3,7.9,41.4,0.4,40.7C-7.2,40.1,-14.3,38.7,-20.1,35.1C-25.8,31.4,-30.1,25.6,-32.8,19.4C-35.5,13.2,-36.5,6.6,-37.1,-0.3C-37.6,-7.3,-37.7,-14.5,-35,-20.7C-32.3,-26.9,-26.9,-32.1,-20.6,-36.3C-14.4,-40.5,-7.2,-43.7,-0.1,-43.5C7,-43.4,14,-39.9,21.1,-36.2Z" width="100%" height="100%" transform="translate(50 50)" stroke-width="0" style="transition: all 0.3s ease 0s;" stroke="url(#sw-gradient)"></path>
              </svg>